<?xml version="1.0" encoding="UTF-8"?>
<svg width="1200pt" height="1200pt" version="1.1" viewBox="0 0 1200 1200" xmlns="http://www.w3.org/2000/svg">
 <path d="m935.94 1200h-671.88c-145.65 0-264.06-118.5-264.06-264.06v-671.88c0-145.65 118.41-264.06 264.06-264.06h671.88c145.57 0 264.06 118.41 264.06 264.06v671.88c0 145.57-118.5 264.06-264.06 264.06zm-671.88-1167c-127.41 0-231.05 103.64-231.05 231.05v671.88c0 127.41 103.64 231.05 231.05 231.05h671.88c127.41 0 231.05-103.64 231.05-231.05v-671.88c0-127.41-103.64-231.05-231.05-231.05zm591.75 505.1c-34.164 0-61.891 27.727-61.891 61.891s27.727 61.891 61.891 61.891c34.164 0 61.891-27.727 61.891-61.891s-27.727-61.891-61.891-61.891zm-118.41-162.89c-24.18 24.18-24.18 63.375 0 87.555 24.18 24.18 63.375 24.18 87.555 0 24.18-24.18 24.18-63.375 0-87.555-24.18-24.18-63.375-24.18-87.555 0zm-198.87-31.441c0 34.164 27.727 61.891 61.891 61.891 34.164 0 61.891-27.727 61.891-61.891 0-34.164-27.727-61.891-61.891-61.891-34.164 0-61.891 27.727-61.891 61.891zm-162.89 118.41c24.18 24.18 63.375 24.18 87.555 0 24.18-24.18 24.18-63.375 0-87.555-24.18-24.18-63.375-24.18-87.555 0-24.18 24.18-24.18 63.375 0 87.555zm-31.441 198.87c34.164 0 61.891-27.727 61.891-61.891 0-34.164-27.727-61.891-61.891-61.891s-61.891 27.727-61.891 61.891c0 34.164 27.727 61.891 61.891 61.891zm255.81-490.99c-236.83 0-429.43 192.68-429.43 429.52 0 208.69 149.61 383.14 347.32 421.51 26.57 5.1992 54.051 7.9219 82.105 7.9219 28.059 0 55.535-2.7227 82.105-7.9219 197.72-38.371 347.32-212.82 347.32-421.51 0-236.83-192.6-429.52-429.43-429.52zm78.805 818.02c-10.398-33.668-41.754-58.094-78.805-58.094s-68.41 24.426-78.805 58.094c-180.96-36.555-317.62-196.89-317.62-388.5 0-218.68 177.83-396.51 396.43-396.51 218.59 0 396.43 177.83 396.43 396.51 0 191.61-136.65 351.95-317.62 388.5z"/>
</svg>
